<svg xmlns="http://www.w3.org/2000/svg" viewBox="0 0 63.575 63.575"><g stroke-linecap="round" stroke-linejoin="round" stroke-miterlimit="1.1"><g stroke-width="3.772"><path fill="#b30b0b" d="M4.433 28.584 28.577 4.44a4.53 4.53 0 0 1 6.42 0l24.145 24.144a4.53 4.53 0 0 1 0 6.42L34.997 59.15a4.53 4.53 0 0 1-6.42 0L4.433 35.004a4.53 4.53 0 0 1 0-6.42z"/><path fill="#780808" d="m31.788 47.077-7.641 7.641 4.43 4.431a4.53 4.53 0 0 0 6.421 0l4.431-4.43z"/><path fill="#ea1010" d="M31.788 3.106c-1.16 0-2.32.445-3.21 1.334l-4.431 4.431 7.641 7.641 7.641-7.64L35 4.44a4.525 4.525 0 0 0-3.211-1.334z"/></g><g stroke-width="3.239"><path fill="#c40e0e" d="m8.864 24.153 7.641-7.64 7.641 7.64-7.64 7.642z"/><path fill="#d70f0f" d="m16.505 16.512 7.641-7.641 7.642 7.641-7.642 7.641z"/><path fill="#9e0a0a" d="m8.864 39.436 7.642-7.642 7.641 7.642-7.641 7.641z"/><path fill="#d70f0f" d="m31.788 16.512 7.641-7.641 7.642 7.641-7.642 7.641z"/><path fill="#c40e0e" d="m24.146 24.153 7.642-7.64 7.641 7.64-7.641 7.642z"/><path fill="#8b0909" d="m16.506 47.077 7.641-7.641 7.641 7.641-7.64 7.641z"/><path fill="#9e0a0a" d="m24.146 39.436 7.642-7.641 7.641 7.641-7.641 7.642z"/><path fill="#c40e0e" d="m39.43 24.153 7.64-7.64 7.642 7.64-7.641 7.642z"/><path fill="#8b0909" d="m31.787 47.077 7.642-7.641 7.641 7.641-7.641 7.641z"/><path fill="#9e0a0a" d="m39.429 39.436 7.641-7.642 7.641 7.642-7.641 7.641z"/></g><path fill-opacity=".502" d="M31.787 6.9a1.433 1.433 0 0 0-1.012.419l-21.61 21.61a2.985 2.985 0 0 0-.839-.12 2.985 2.985 0 0 0-2.984 2.985 2.985 2.985 0 0 0 2.984 2.985 2.985 2.985 0 0 0 2.985-2.985 2.985 2.985 0 0 0-.12-.84l20.597-20.596 20.597 20.597a2.985 2.985 0 0 0-.122.838 2.985 2.985 0 0 0 2.985 2.985 2.985 2.985 0 0 0 2.985-2.985 2.985 2.985 0 0 0-2.985-2.984 2.985 2.985 0 0 0-.838.12L32.8 7.32a1.433 1.433 0 0 0-1.013-.42zM39.608 44.45a2.985 2.985 0 0 0-2.985 2.985 2.985 2.985 0 0 0 .121.838l-4.956 4.956-4.94-4.94a2.985 2.985 0 0 0 .104-.78 2.985 2.985 0 0 0-2.984-2.985 2.985 2.985 0 0 0-2.985 2.984 2.985 2.985 0 0 0 2.985 2.985 2.985 2.985 0 0 0 .894-.137l5.913 5.912a1.433 1.433 0 0 0 2.025 0l5.97-5.97a2.985 2.985 0 0 0 .838.122 2.985 2.985 0 0 0 2.985-2.985 2.985 2.985 0 0 0-2.985-2.985z"/></g></svg>