<svg xmlns="http://www.w3.org/2000/svg" viewBox="0 0 63.575 63.575"><g stroke-linecap="round" stroke-linejoin="round" stroke-miterlimit="1.1"><g stroke-width="3.772"><path fill="#b30b0b" d="M1.478 28.23 28.23 1.476a5.02 5.02 0 0 1 7.114 0l26.753 26.752a5.02 5.02 0 0 1 0 7.114L35.344 62.096a5.02 5.02 0 0 1-7.114 0L1.478 35.343a5.02 5.02 0 0 1 0-7.114z"/><path fill="#780808" d="m31.788 48.72-8.467 8.467 4.91 4.91a5.02 5.02 0 0 0 7.114 0l4.91-4.91z"/><path fill="#ea1010" d="M31.788-.001a5.015 5.015 0 0 0-3.557 1.478l-4.91 4.91 8.467 8.466 8.467-8.466-4.91-4.91a5.014 5.014 0 0 0-3.557-1.478z"/></g><g stroke-width="3.239"><path fill="#c40e0e" d="m6.387 23.32 8.467-8.467 8.467 8.467-8.467 8.467z"/><path fill="#d70f0f" d="m14.854 14.853 8.467-8.467 8.467 8.467-8.467 8.467z"/><path fill="#9e0a0a" d="m6.388 40.253 8.467-8.467 8.467 8.467-8.467 8.467z"/><path fill="#d70f0f" d="m31.788 14.853 8.467-8.467 8.467 8.467-8.467 8.467z"/><path fill="#c40e0e" d="m23.321 23.32 8.467-8.467 8.467 8.467-8.467 8.467z"/><path fill="#8b0909" d="m14.855 48.72 8.467-8.467 8.467 8.467-8.467 8.467z"/><path fill="#9e0a0a" d="m23.321 40.254 8.467-8.467 8.467 8.467-8.467 8.467z"/><path fill="#c40e0e" d="m40.255 23.32 8.467-8.467 8.467 8.467-8.467 8.467z"/><path fill="#8b0909" d="m31.787 48.72 8.467-8.467 8.467 8.467-8.467 8.467z"/><path fill="#9e0a0a" d="m40.254 40.253 8.467-8.467 8.467 8.467-8.467 8.467z"/></g><path fill-opacity=".502" d="M31.787 4.21a1.588 1.588 0 0 0-1.122.464L6.721 28.618a3.307 3.307 0 0 0-.929-.133 3.307 3.307 0 0 0-3.307 3.308A3.307 3.307 0 0 0 5.792 35.1 3.307 3.307 0 0 0 9.1 31.793a3.307 3.307 0 0 0-.134-.93L31.788 8.04 54.61 30.863a3.307 3.307 0 0 0-.134.929 3.307 3.307 0 0 0 3.307 3.307 3.307 3.307 0 0 0 3.307-3.307 3.307 3.307 0 0 0-3.307-3.307 3.307 3.307 0 0 0-.928.134L32.909 4.673a1.588 1.588 0 0 0-1.122-.464zM40.453 45.81a3.307 3.307 0 0 0-3.307 3.307 3.307 3.307 0 0 0 .134.929l-5.492 5.492-5.473-5.474a3.307 3.307 0 0 0 .115-.865 3.307 3.307 0 0 0-3.307-3.307 3.307 3.307 0 0 0-3.308 3.307 3.307 3.307 0 0 0 3.308 3.307 3.307 3.307 0 0 0 .99-.152l6.552 6.55a1.588 1.588 0 0 0 2.244 0l6.616-6.614a3.307 3.307 0 0 0 .928.135 3.307 3.307 0 0 0 3.307-3.308 3.307 3.307 0 0 0-3.307-3.307z"/></g></svg>