<svg xmlns="http://www.w3.org/2000/svg" viewBox="0 0 349.04 63.575"><g stroke-miterlimit="1.1"><g stroke-linecap="round" stroke-linejoin="round"><g stroke-width="3.772"><path fill="#b30b0b" d="M1.478 28.23 28.23 1.479a5.02 5.02 0 0 1 7.114 0L62.097 28.23a5.02 5.02 0 0 1 0 7.113L35.344 62.097a5.02 5.02 0 0 1-7.114 0L1.478 35.344a5.02 5.02 0 0 1 0-7.113z"/><path fill="#780808" d="m31.788 48.721-8.467 8.467 4.91 4.91a5.02 5.02 0 0 0 7.114 0l4.91-4.91z"/><path fill="#ea1010" d="M31.788 0a5.015 5.015 0 0 0-3.557 1.478l-4.91 4.91 8.467 8.466 8.467-8.466-4.91-4.91A5.014 5.014 0 0 0 31.788 0z"/></g><g stroke-width="3.239"><path fill="#c40e0e" d="m6.387 23.321 8.467-8.467 8.467 8.467-8.467 8.467z"/><path fill="#d70f0f" d="m14.854 14.854 8.467-8.467 8.467 8.467-8.467 8.467z"/><path fill="#9e0a0a" d="m6.388 40.254 8.467-8.467 8.467 8.467-8.467 8.467z"/><path fill="#d70f0f" d="m31.788 14.854 8.467-8.467 8.467 8.467-8.467 8.467z"/><path fill="#c40e0e" d="m23.321 23.321 8.467-8.467 8.467 8.467-8.467 8.467z"/><path fill="#8b0909" d="m14.855 48.721 8.467-8.467 8.467 8.467-8.467 8.467z"/><path fill="#9e0a0a" d="m23.321 40.255 8.467-8.467 8.467 8.467-8.467 8.467z"/><path fill="#c40e0e" d="m40.255 23.321 8.467-8.467 8.467 8.467-8.467 8.467z"/><path fill="#8b0909" d="m31.787 48.721 8.467-8.467 8.467 8.467-8.467 8.467z"/><path fill="#9e0a0a" d="m40.254 40.254 8.467-8.467 8.467 8.467-8.467 8.467z"/></g></g><path fill-opacity=".502" d="M31.787 4.205a1.588 1.588 0 0 0-1.122.464L6.721 28.613a3.307 3.307 0 0 0-.929-.133 3.307 3.307 0 0 0-3.307 3.308 3.307 3.307 0 0 0 3.307 3.307A3.307 3.307 0 0 0 9.1 31.788a3.307 3.307 0 0 0-.134-.93L31.788 8.036 54.61 30.858a3.307 3.307 0 0 0-.134.929 3.307 3.307 0 0 0 3.307 3.307 3.307 3.307 0 0 0 3.307-3.307 3.307 3.307 0 0 0-3.307-3.307 3.307 3.307 0 0 0-.928.134L32.909 4.668a1.588 1.588 0 0 0-1.122-.464zM40.453 45.811a3.307 3.307 0 0 0-3.307 3.307 3.307 3.307 0 0 0 .134.929l-5.492 5.492-5.473-5.474a3.307 3.307 0 0 0 .115-.865 3.307 3.307 0 0 0-3.307-3.307 3.307 3.307 0 0 0-3.308 3.307 3.307 3.307 0 0 0 3.308 3.307 3.307 3.307 0 0 0 .99-.152l6.552 6.55a1.588 1.588 0 0 0 2.244 0l6.616-6.614a3.307 3.307 0 0 0 .928.135 3.307 3.307 0 0 0 3.307-3.308 3.307 3.307 0 0 0-3.307-3.307z"/><g fill="#ddd" stroke-linecap="square" stroke-width="5.292" aria-label="AetherSim"><path d="m78.052 51.288 16.933-37.042h3.863l16.933 37.042h-4.128L96.095 16.522h1.588L82.125 51.288zm6.668-9.895 1.164-3.175h21.537l1.164 3.175zM131.601 51.552q-4.34 0-7.62-1.8-3.28-1.851-5.133-5.026-1.852-3.228-1.852-7.356 0-4.127 1.746-7.302 1.8-3.175 4.868-4.974 3.123-1.852 6.985-1.852 3.916 0 6.933 1.799 3.069 1.746 4.815 4.974 1.746 3.175 1.746 7.355 0 .265-.053.582v.583h-24.183V35.73h22.172l-1.481 1.111q0-3.016-1.323-5.344-1.27-2.382-3.493-3.705-2.222-1.322-5.133-1.322-2.857 0-5.133 1.322-2.275 1.323-3.545 3.705-1.27 2.381-1.27 5.45v.582q0 3.175 1.376 5.61 1.429 2.38 3.916 3.756 2.54 1.323 5.768 1.323 2.54 0 4.71-.9 2.222-.899 3.81-2.75L142.342 47q-1.852 2.223-4.657 3.387-2.752 1.164-6.085 1.164zM159.491 51.552q-3.916 0-6.033-2.117t-2.116-5.98V17.369h3.757v25.876q0 2.434 1.217 3.757 1.27 1.323 3.598 1.323 2.487 0 4.128-1.429l1.323 2.699q-1.112 1.005-2.7 1.482-1.534.476-3.174.476zm-13.123-24.924v-3.122h17.198v3.122zM185.311 23.242q3.387 0 5.927 1.323 2.593 1.27 4.021 3.916 1.482 2.646 1.482 6.667v16.14h-3.757V35.52q0-4.392-2.223-6.614-2.17-2.276-6.138-2.276-2.963 0-5.186 1.217-2.17 1.165-3.386 3.44-1.164 2.223-1.164 5.398v14.605h-3.758V12.023h3.758v19.103l-.741-1.428q1.323-3.017 4.233-4.71 2.91-1.746 6.932-1.746zM217.651 51.552q-4.34 0-7.62-1.8-3.28-1.851-5.133-5.026-1.852-3.228-1.852-7.356 0-4.127 1.746-7.302 1.8-3.175 4.868-4.974 3.123-1.852 6.985-1.852 3.916 0 6.933 1.799 3.069 1.746 4.815 4.974 1.746 3.175 1.746 7.355 0 .265-.053.582v.583h-24.183V35.73h22.172l-1.481 1.111q0-3.016-1.323-5.344-1.27-2.382-3.493-3.705-2.222-1.322-5.133-1.322-2.857 0-5.133 1.322-2.275 1.323-3.545 3.705-1.27 2.381-1.27 5.45v.582q0 3.175 1.376 5.61 1.429 2.38 3.916 3.756 2.54 1.323 5.768 1.323 2.54 0 4.71-.9 2.222-.899 3.81-2.75L228.392 47q-1.852 2.223-4.657 3.387-2.752 1.164-6.085 1.164zM236.751 51.288v-27.78h3.598v7.566l-.37-1.323q1.164-3.175 3.916-4.815 2.751-1.693 6.826-1.693v3.65h-.423q-.212-.052-.424-.052-4.392 0-6.879 2.699-2.487 2.646-2.487 7.567v14.182zM270.991 51.5q-4.075 0-7.726-1.43-3.598-1.481-5.503-3.704l.952-1.27q1.8 2.01 5.08 3.44 3.334 1.375 7.144 1.375 3.863 0 6.35-1.058 2.487-1.058 3.651-2.804 1.217-1.8 1.217-3.97 0-2.54-1.27-4.074t-3.386-2.434q-2.064-.9-4.551-1.482-2.434-.582-4.974-1.217-2.487-.688-4.604-1.693-2.064-1.058-3.334-2.858-1.217-1.852-1.217-4.762 0-2.487 1.323-4.657t4.128-3.492q2.804-1.376 7.196-1.376 3.016 0 5.927.952 2.963.9 5.027 2.435l-.794 1.428q-2.222-1.64-4.921-2.434-2.699-.794-5.186-.794-3.704 0-6.191 1.112-2.434 1.058-3.598 2.857t-1.165 3.969q0 2.593 1.27 4.127t3.334 2.435q2.117.9 4.604 1.481 2.487.582 4.974 1.27 2.487.635 4.551 1.694 2.117 1.058 3.334 2.857 1.27 1.746 1.27 4.604 0 2.487-1.376 4.657-1.323 2.17-4.233 3.492-2.858 1.323-7.303 1.323zM291.621 51.288V23.824h1.746v27.464zm.847-34.66q-.688 0-1.217-.53t-.53-1.163q0-.741.53-1.217.529-.53 1.217-.53.74 0 1.217.53.529.476.529 1.164t-.53 1.217q-.475.53-1.216.53zM338.241 23.612q3.334 0 5.715 1.323 2.434 1.323 3.757 3.916 1.323 2.54 1.323 6.297v16.14h-1.746V35.254q0-4.921-2.434-7.461-2.382-2.54-6.72-2.54-3.282 0-5.716 1.375t-3.757 3.916q-1.27 2.54-1.27 5.927v14.817h-1.746V35.254q0-4.921-2.381-7.461t-6.72-2.54q-3.334 0-5.769 1.375-2.38 1.376-3.704 3.916-1.27 2.54-1.27 5.927v14.817h-1.746V23.824h1.693v7.673l-.211-.476q1.217-3.387 4.074-5.398 2.858-2.01 7.038-2.01 4.233 0 6.985 2.116 2.805 2.117 3.493 6.35l-.477-.212q1.059-3.651 4.075-5.926 3.016-2.329 7.514-2.329z"/></g></g></svg>