<svg xmlns="http://www.w3.org/2000/svg" viewBox="0 0 349.04 63.575"><g fill="#fff"><path d="M31.787 0a5.014 5.014 0 0 0-3.557 1.478l-4.314 4.314 2.813 2.813 3.936-3.936a1.588 1.588 0 0 1 1.122-.464 1.588 1.588 0 0 1 1.121.464l3.937 3.937 2.813-2.814-4.314-4.314A5.015 5.015 0 0 0 31.787 0zm-8.665 6.586-7.871 7.871 2.813 2.813L25.935 9.4zm17.33 0L37.64 9.399l7.871 7.872 2.814-2.814zm-8.665 1.45-2.813 2.814 2.813 2.814 2.814-2.815zm3.608 3.607-2.814 2.814 7.871 7.872 2.815-2.814zm-7.215.001-7.872 7.872 2.814 2.813 7.871-7.872zm-13.723 3.607-7.872 7.871 2.813 2.813 7.872-7.871zm17.33 0-7.872 7.871 7.872 7.872 7.871-7.872zm17.33 0-2.814 2.813 7.872 7.872 2.813-2.814zm-5.058 5.057-2.814 2.814 7.872 7.872 2.814-2.815zm-24.545.001-7.871 7.872 2.813 2.813 7.872-7.871zM5.791 23.916l-4.314 4.315a5.02 5.02 0 0 0 0 7.113L5.79 39.66l7.872-7.872-2.813-2.813-1.885 1.884a3.307 3.307 0 0 1 .134.93 3.307 3.307 0 0 1-3.308 3.307 3.307 3.307 0 0 1-3.307-3.308 3.307 3.307 0 0 1 3.307-3.307 3.307 3.307 0 0 1 .93.133l1.883-1.884zm17.33 0-7.871 7.872 7.871 7.871 7.872-7.871zm17.33 0-7.872 7.872 7.872 7.871 7.871-7.871zm17.33 0-2.814 2.814 1.886 1.885a3.307 3.307 0 0 1 .928-.135 3.307 3.307 0 0 1 3.307 3.308 3.307 3.307 0 0 1-3.307 3.307 3.307 3.307 0 0 1-3.308-3.307 3.307 3.307 0 0 1 .135-.93l-1.884-1.885-2.815 2.815 7.872 7.871 4.314-4.314a5.02 5.02 0 0 0 0-7.114zm-43.326 8.665-7.872 7.872 7.872 7.871 7.871-7.871zm17.33 0-7.872 7.872 7.872 7.871 7.871-7.871zm17.33 0-7.872 7.872 7.871 7.871 7.872-7.871zm-25.996 8.666-7.872 7.871 7.872 7.872 2.813-2.813-1.822-1.822a3.307 3.307 0 0 1-.991.152 3.307 3.307 0 0 1-3.307-3.307 3.307 3.307 0 0 1 3.307-3.307 3.307 3.307 0 0 1 3.307 3.307 3.307 3.307 0 0 1-.115.865l1.866 1.867 2.813-2.814zm17.33 0-7.872 7.871 2.814 2.813 1.885-1.884a3.307 3.307 0 0 1-.135-.929 3.307 3.307 0 0 1 3.308-3.307 3.307 3.307 0 0 1 3.307 3.307 3.307 3.307 0 0 1-3.307 3.308 3.307 3.307 0 0 1-.928-.135l-1.886 1.885 2.814 2.814 7.871-7.872zm-8.665 8.665-2.813 2.813 2.813 2.813 2.813-2.813zm5.058 5.058-3.937 3.935a1.588 1.588 0 0 1-2.244 0l-3.936-3.935-2.812 2.813 4.314 4.314a5.02 5.02 0 0 0 7.114 0l4.314-4.314z"/><g stroke-linecap="round" stroke-linejoin="round" stroke-miterlimit="1.1" stroke-width="3.969" aria-label="AetherSim"><path d="m78.052 51.287 16.933-37.042h3.863l16.933 37.042h-4.128L96.095 16.521h1.588L82.125 51.287zm6.668-9.895 1.164-3.175h21.537l1.164 3.175zM131.601 51.552q-4.34 0-7.62-1.8-3.28-1.851-5.133-5.026-1.852-3.228-1.852-7.356 0-4.127 1.746-7.302 1.8-3.175 4.868-4.974 3.123-1.852 6.985-1.852 3.916 0 6.933 1.799 3.069 1.746 4.815 4.974 1.746 3.175 1.746 7.355 0 .265-.053.582v.583h-24.183V35.73h22.172l-1.481 1.111q0-3.016-1.323-5.344-1.27-2.382-3.493-3.705-2.222-1.322-5.133-1.322-2.857 0-5.133 1.322-2.275 1.323-3.545 3.705-1.27 2.381-1.27 5.45v.582q0 3.175 1.376 5.61 1.429 2.38 3.916 3.756 2.54 1.323 5.767 1.323 2.54 0 4.71-.9 2.223-.899 3.81-2.75L142.343 47q-1.852 2.223-4.657 3.387-2.752 1.164-6.085 1.164zM159.491 51.552q-3.916 0-6.033-2.117-2.116-2.116-2.116-5.98V17.369h3.757v25.876q0 2.434 1.217 3.757 1.27 1.323 3.598 1.323 2.487 0 4.128-1.429l1.323 2.699q-1.112 1.005-2.7 1.482-1.534.476-3.174.476zm-13.123-24.924v-3.122h17.198v3.122zM185.311 23.242q3.387 0 5.927 1.323 2.593 1.27 4.021 3.916 1.482 2.646 1.482 6.667v16.14h-3.757V35.52q0-4.392-2.223-6.614-2.17-2.276-6.138-2.276-2.963 0-5.186 1.217-2.17 1.165-3.386 3.44-1.164 2.223-1.164 5.398v14.605h-3.758V12.023h3.758v19.103l-.741-1.428q1.323-3.017 4.233-4.71 2.91-1.746 6.932-1.746zM217.651 51.552q-4.34 0-7.62-1.8-3.28-1.851-5.133-5.026-1.852-3.228-1.852-7.356 0-4.127 1.746-7.302 1.8-3.175 4.868-4.974 3.123-1.852 6.985-1.852 3.916 0 6.933 1.799 3.069 1.746 4.815 4.974 1.746 3.175 1.746 7.355 0 .265-.053.582v.583h-24.183V35.73h22.172l-1.481 1.111q0-3.016-1.323-5.344-1.27-2.382-3.493-3.705-2.222-1.322-5.133-1.322-2.857 0-5.133 1.322-2.275 1.323-3.545 3.705-1.27 2.381-1.27 5.45v.582q0 3.175 1.376 5.61 1.429 2.38 3.916 3.756 2.54 1.323 5.767 1.323 2.54 0 4.71-.9 2.223-.899 3.81-2.75L228.393 47q-1.852 2.223-4.657 3.387-2.752 1.164-6.085 1.164zM236.751 51.287v-27.78h3.598v7.566l-.37-1.323q1.164-3.175 3.916-4.815 2.751-1.693 6.826-1.693v3.65h-.423q-.212-.052-.424-.052-4.392 0-6.879 2.699-2.487 2.646-2.487 7.567v14.182zM270.991 51.5q-4.075 0-7.726-1.43-3.598-1.481-5.503-3.704l.952-1.27q1.8 2.01 5.08 3.44 3.334 1.375 7.144 1.375 3.863 0 6.35-1.058 2.487-1.058 3.651-2.804 1.217-1.8 1.217-3.97 0-2.54-1.27-4.074-1.27-1.534-3.386-2.434-2.064-.9-4.551-1.482-2.434-.582-4.974-1.217-2.487-.688-4.604-1.693-2.064-1.058-3.334-2.858-1.217-1.852-1.217-4.762 0-2.487 1.323-4.657t4.128-3.492q2.804-1.376 7.196-1.376 3.016 0 5.927.952 2.963.9 5.027 2.435l-.794 1.428q-2.222-1.64-4.921-2.434-2.699-.794-5.186-.794-3.704 0-6.191 1.112-2.434 1.058-3.598 2.857-1.165 1.8-1.165 3.969 0 2.593 1.27 4.128 1.27 1.534 3.334 2.434 2.117.9 4.604 1.481 2.487.583 4.974 1.27 2.487.635 4.551 1.694 2.117 1.058 3.334 2.857 1.27 1.747 1.27 4.604 0 2.487-1.376 4.657-1.323 2.17-4.233 3.492-2.858 1.323-7.303 1.323zM291.621 51.287V23.823h1.746v27.464zm.847-34.66q-.688 0-1.217-.53t-.53-1.163q0-.741.53-1.217.529-.53 1.217-.53.74 0 1.217.53.529.476.529 1.164t-.53 1.217q-.475.53-1.216.53zM338.241 23.612q3.334 0 5.715 1.323 2.434 1.323 3.757 3.916 1.323 2.54 1.323 6.297v16.14h-1.746V35.254q0-4.921-2.434-7.461-2.382-2.54-6.72-2.54-3.282 0-5.716 1.375-2.434 1.376-3.757 3.916-1.27 2.54-1.27 5.927v14.817h-1.746V35.254q0-4.921-2.381-7.461-2.382-2.54-6.72-2.54-3.334 0-5.769 1.375-2.38 1.376-3.704 3.916-1.27 2.54-1.27 5.927v14.817h-1.746V23.824h1.693v7.673l-.211-.476q1.217-3.387 4.074-5.398t7.038-2.01q4.233 0 6.985 2.116 2.805 2.117 3.493 6.35l-.477-.212q1.059-3.651 4.075-5.926 3.016-2.329 7.514-2.329z"/></g></g></svg>